<?xml version="1.0" encoding="utf-8" ?><svg xmlns="http://www.w3.org/2000/svg" xmlns:xlink="http://www.w3.org/1999/xlink" width="1024" height="1024" viewBox="0 0 1024 1024"><path fill="#155B62" d="M170.536 760.107C160.604 747.869 147.544 725.469 140.112 711.519C89.0143 615.611 77.929 495.279 109.383 391.5C129.444 323.691 166.263 262.028 216.443 212.203C243.381 184.698 274.289 161.386 308.138 143.044C410.115 88.621 524.406 75.4738 635.486 109.215L639.089 110.342C646.689 113.002 654.475 115.97 662.024 118.547L664.668 119.684C672.499 122.875 680.237 126.29 687.871 129.927L689.979 130.797C697.172 134.196 704.294 137.744 711.34 141.437L713.043 142.541C720.126 146.364 727.078 150.427 733.885 154.722L736.253 156.431C741.38 159.811 750.787 165.783 755.361 169.745C756.078 170.145 756.903 170.569 757.572 171.024C763.224 175.437 771.535 181.599 776.604 186.322L778.674 188.2C784.284 193.244 789.859 198.328 795.396 203.452L797.536 205.274C802.492 210.674 807.816 215.723 812.858 221.076L814.268 222.528C819.921 228.392 825.378 234.442 830.629 240.667L831.957 242.383C836.893 248.516 841.731 254.727 846.471 261.013L847.998 263.125C875.728 301.113 897.085 343.364 911.229 388.219L911.736 390.208C913.733 396.752 915.163 403.772 917.081 409.891L917.713 412.782L922.591 435.056L922.733 436.405C924.151 443.626 925.156 451.232 926.149 458.539L926.417 460.929C927.257 468.339 927.673 474.882 928.348 482.159L928.553 484.74C928.74 492.083 929.025 499.422 929.409 506.757L929.366 508.354C929.387 514.323 929.512 525.72 928.855 531.448C928.343 539.262 928.006 547.092 927.348 554.892L927.063 557.224C926.222 564.172 925.451 571.78 924.391 578.651L924.005 580.543C922.869 587.861 921.509 595.961 919.781 603.174L919.243 605.477C917.79 611.524 914.987 621.354 914.013 627.011L913.339 629.073C910.738 637.711 908.091 646.135 904.752 654.526C901.066 666.942 879.941 714.789 872.442 724.451L871.683 725.797L869.718 728.871C860.919 742.849 851.357 756.331 841.076 769.257C837.46 773.883 832.089 780.85 828.012 784.947C824.774 782.859 809.676 767.438 806.169 763.943C789.372 747.203 773.016 730.585 755.735 714.287C743.428 713.803 717.988 713.493 705.824 714.479C756.447 766.31 807.575 817.645 859.2 868.476L898.179 906.638C905.286 913.551 917.556 924.902 923.143 932.449C880.096 932.855 837.048 932.967 794 932.783C773.98 932.733 753.37 932.938 733.369 932.469C714.331 915.404 692.751 892.931 674.359 874.729L554.417 755.944C541.059 742.85 527.187 728.412 513.656 715.718C492.658 714.873 468.07 715.644 446.844 715.784C406.465 716.085 366.086 716.169 325.707 716.038C332.618 723.105 339.127 729.894 346.646 736.34C390.727 774.493 447.029 795.572 505.328 795.749C519.775 795.917 530.695 794.711 545.091 792.875C580.825 830.554 620.568 866.787 657.13 903.838C586.19 930.172 509.555 937.313 434.97 924.541C425.233 922.878 415.684 920.684 406.094 918.367C399.61 916.8 391.69 914.014 385.428 912.693L382.999 911.9C376.526 910.117 365.129 906.058 358.854 903.705L356.224 902.827C348.925 899.878 341.67 896.822 334.46 893.661L331.546 892.313C324.491 889.033 317.538 885.537 310.698 881.829L308.338 880.743C302.31 876.837 294.126 872.403 287.641 868.393L285.185 866.926C278.038 862.498 272.127 858.418 265.262 853.532L262.439 851.499C256.604 847.618 249.668 842.258 244.098 837.947L242.079 836.385C236.006 831.654 230.384 826.593 224.667 821.446L222.475 819.294C216.817 813.974 211.289 808.517 205.896 802.928L203.945 800.88C199.762 797.177 191.72 787.834 187.678 783.343L186.017 781.198C181.408 775.392 176.591 768.609 172.127 762.608L170.536 760.107ZM235.632 564.544C273.226 563.777 312.336 564.102 349.985 564.093L533.125 564.118L786.439 564.88C789.203 546.812 791.442 528.99 791.338 510.66C791.002 451.537 770.159 393.98 735.333 346.516C680.554 271.86 587.622 222.882 493.995 229.735C418.912 234.818 348.948 269.605 299.578 326.402C248.35 385.505 226.047 461.62 232.455 538.91C233.211 548.025 234.27 555.389 235.632 564.544Z"/><path fill="#8D8C5F" d="M635.486 109.215L639.089 110.342C646.689 113.002 654.475 115.97 662.024 118.547L664.668 119.684C672.499 122.875 680.237 126.29 687.871 129.927L689.979 130.797C697.172 134.196 704.294 137.744 711.34 141.437L713.043 142.541C720.126 146.364 727.078 150.427 733.885 154.722L736.253 156.431C741.38 159.811 750.787 165.783 755.361 169.745C756.078 170.145 756.903 170.569 757.572 171.024C763.224 175.437 771.535 181.599 776.604 186.322L778.674 188.2C784.284 193.244 789.859 198.328 795.396 203.452L797.536 205.274C802.492 210.674 807.816 215.723 812.858 221.076L814.268 222.528C819.921 228.392 825.378 234.442 830.629 240.667L831.957 242.383C836.893 248.516 841.731 254.727 846.471 261.013L847.998 263.125C875.728 301.113 897.085 343.364 911.229 388.219L911.736 390.208C913.733 396.752 915.163 403.772 917.081 409.891L917.713 412.782L922.591 435.056L922.733 436.405C924.151 443.626 925.156 451.232 926.149 458.539L926.417 460.929C927.257 468.339 927.673 474.882 928.348 482.159L928.553 484.74C928.74 492.083 929.025 499.422 929.409 506.757L929.366 508.354C929.387 514.323 929.512 525.72 928.855 531.448C928.343 539.262 928.006 547.092 927.348 554.892L927.063 557.224C926.222 564.172 925.451 571.78 924.391 578.651L924.005 580.543C922.869 587.861 921.509 595.961 919.781 603.174L919.243 605.477C917.79 611.524 914.987 621.354 914.013 627.011L913.339 629.073C910.738 637.711 908.091 646.135 904.752 654.526C901.066 666.942 879.941 714.789 872.442 724.451L871.683 725.797L869.718 728.871C864.287 723.892 858.996 718.832 853.801 713.606C835.251 694.947 815.332 676.372 797.963 656.644C802.228 647.145 806.579 637.761 810.582 628.131C854.728 521.947 836.616 408.784 763.842 318.803C719.378 264.744 660.228 224.7 593.521 203.496C580.938 199.491 563.212 194.478 550.208 193.107C558.515 183.913 569.167 174.228 578.171 165.503C591.254 152.88 604.212 140.129 617.046 127.253C622.709 121.674 630.356 114.977 635.486 109.215Z"/><path fill="#155B62" d="M847.998 263.125C875.728 301.113 897.085 343.364 911.229 388.219L911.736 390.208C913.733 396.752 915.163 403.772 917.081 409.891C910.445 411.575 880.124 410.66 871.821 410.609C866.5 400.263 860.566 384.926 855.418 373.605L817.851 292.923C822.94 287.687 828.163 282.583 833.513 277.614L834.124 277.945L835.847 275.527C836.802 274.037 846.248 264.861 847.998 263.125Z"/><path fill="#155B62" d="M847.998 263.125C875.728 301.113 897.085 343.364 911.229 388.219C904.102 387.695 894.25 387.967 886.912 387.982C884.471 380.359 875.99 363.555 872.593 355.865C860.941 328.817 848.69 302.031 835.847 275.527C836.802 274.037 846.248 264.861 847.998 263.125Z"/><defs><linearGradient id="gradient_0" gradientUnits="userSpaceOnUse" x1="858.94269" y1="340.27573" x2="877.83118" y2="329.98047"><stop offset="0" stop-color="#868B5C"/><stop offset="1" stop-color="#A49F68"/></linearGradient></defs><path fill="url(#gradient_0)" d="M835.847 275.527C848.69 302.031 860.941 328.817 872.593 355.865C875.99 363.555 884.471 380.359 886.912 387.982C894.25 387.967 904.102 387.695 911.229 388.219L911.736 390.208C903.136 390.581 893.793 390.502 885.17 390.558C878.345 373.062 869.859 355.649 862.023 338.566C852.941 318.259 843.641 298.051 834.124 277.945L835.847 275.527Z"/><path fill="#155B62" d="M798.872 312.789C813.831 343.729 826.838 375.105 841.118 406.273C845.877 416.66 849.459 427.413 854.934 437.577C876.761 436.666 898.943 437.57 920.793 437.182C921.674 437.166 922.065 436.915 922.733 436.405C924.151 443.626 925.156 451.232 926.149 458.539L926.417 460.929C903.406 461.45 880.138 460.488 857.095 460.904C849.567 461.04 841.676 461.033 834.157 460.775C833.904 460.246 833.605 459.094 833.422 458.482C830.222 448.148 827.792 434.285 824.321 422.664C818.031 401.435 809.272 381.018 798.223 361.831C792.243 351.615 785.543 342.059 779.103 332.169C783.969 326.74 793.504 317.746 798.872 312.789Z"/><path fill="#8D8C5F" d="M833.422 458.482L926.149 458.539L926.417 460.929C903.406 461.45 880.138 460.488 857.095 460.904C849.567 461.04 841.676 461.033 834.157 460.775C833.904 460.246 833.605 459.094 833.422 458.482Z"/><path fill="#155B62" d="M778.674 188.2C784.284 193.244 789.859 198.328 795.396 203.452L797.536 205.274C802.492 210.674 807.816 215.723 812.858 221.076C799.398 232.835 787.24 247.28 774.374 259.832C764.236 269.724 754.21 281.781 743.238 290.741C737.785 285.976 732.795 280.3 726.769 275.153L724.506 273.399C719.203 267.785 712.704 264.055 707.576 259.022C710.557 255.727 714.234 252.081 717.473 248.996C738.069 229.384 757.538 207.083 778.674 188.2Z"/><path fill="#155B62" d="M797.536 205.274C802.492 210.674 807.816 215.723 812.858 221.076C799.398 232.835 787.24 247.28 774.374 259.832C764.236 269.724 754.21 281.781 743.238 290.741C737.785 285.976 732.795 280.3 726.769 275.153C734.904 267.68 743.267 258.817 751.242 250.969C766.786 235.852 782.218 220.62 797.536 205.274Z"/><path fill="#8D8C5F" d="M795.396 203.452L797.536 205.274C782.218 220.62 766.786 235.852 751.242 250.969C743.267 258.817 734.904 267.68 726.769 275.153L724.506 273.399C727.229 270.974 729.646 268.534 732.242 266.004C753.359 245.418 774.065 223.752 795.396 203.452Z"/><path fill="#155B62" d="M837.969 554.932C844.093 554.416 926.325 554.387 927.348 554.892L927.063 557.224C926.222 564.172 925.451 571.78 924.391 578.651C906.593 577.661 887.712 579.187 869.824 578.537C865.92 578.395 862.349 578.553 858.414 578.098C843.743 607.397 832.381 642.335 817.501 671.817L801.952 656.021C819.822 619.43 826.91 596.876 834.443 557.428C834.658 556.927 835.001 556.484 835.313 556.015L838.177 555.457L837.969 554.932Z"/><path fill="#8D8C5F" d="M837.969 554.932C844.093 554.416 926.325 554.387 927.348 554.892L927.063 557.224C905.37 557.359 883.675 557.35 861.982 557.196C855.498 557.176 839.679 557.829 834.443 557.428C834.658 556.927 835.001 556.484 835.313 556.015L838.177 555.457L837.969 554.932Z"/><path fill="#155B62" d="M815.756 294.979C822.374 306.991 827.205 319.54 833.079 331.781C845.902 358.508 857.406 386.525 870.075 413.182C885.809 412.713 901.859 413.197 917.713 412.782L922.591 435.056C900.752 434.528 878.869 435.543 856.862 435.043C852.238 426.289 848.426 416.296 844.419 407.142C836.544 389.113 828.574 371.124 820.512 353.177C814.475 339.554 807.778 323.637 800.44 310.861C805.414 305.442 810.521 300.146 815.756 294.979Z"/><path fill="#155B62" d="M859.828 580.901C879.609 580.645 904.701 581.747 924.005 580.543C922.869 587.861 921.509 595.961 919.781 603.174C904.502 603.034 889.965 603.629 874.553 603.033C867.944 615.702 860.813 632.88 854.84 646.24C848.699 659.976 840.897 676.181 835.447 689.957C831.536 685.368 824.188 678.47 819.678 673.833C833.888 644.607 845.883 610.922 859.828 580.901Z"/><path fill="#155B62" d="M876.024 605.497L919.243 605.477C917.79 611.524 914.987 621.354 914.013 627.011C906.237 626.952 898.461 626.947 890.685 626.994C887.114 633.082 883.549 642.587 880.551 649.148C871.83 668.228 863.955 689.901 853.4 707.971C848.259 702.084 843.052 697.083 837.433 691.655C844.869 674.008 853.463 655.81 861.307 638.299C866.143 627.505 870.911 616.08 876.024 605.497Z"/><path fill="#155B62" d="M689.979 130.797C697.172 134.196 704.294 137.744 711.34 141.437L713.043 142.541C704.646 153.292 695.311 161.437 685.834 171.01C670.696 186.3 654.692 201.553 639.945 217.172C639.107 216.11 638.715 216.273 637.189 215.739C633.082 214.947 619.481 208.262 614.129 206.22C630.54 191.114 647.191 173.819 663.22 158.167C669.336 152.194 685.16 137.08 689.979 130.797Z"/><path fill="#8D8C5F" d="M711.34 141.437L713.043 142.541C704.646 153.292 695.311 161.437 685.834 171.01C670.696 186.3 654.692 201.553 639.945 217.172C639.107 216.11 638.715 216.273 637.189 215.739C648.483 203.813 661.215 191.597 672.917 180.027C685.864 167.304 698.673 154.44 711.34 141.437Z"/><path fill="#155B62" d="M757.572 171.024C763.224 175.437 771.535 181.599 776.604 186.322L778.674 188.2C757.538 207.083 738.069 229.384 717.473 248.996C714.234 252.081 710.557 255.727 707.576 259.022C706.038 257.576 706.901 258.022 704.957 257.511C698.694 252.172 692.057 248.466 685.744 243.427C697.616 232.311 709.737 219.24 721.564 207.773C733.179 196.513 747.293 183.232 757.572 171.024Z"/><path fill="#8D8C5F" d="M776.604 186.322L778.674 188.2C757.538 207.083 738.069 229.384 717.473 248.996C714.234 252.081 710.557 255.727 707.576 259.022C706.038 257.576 706.901 258.022 704.957 257.511C729.02 234.1 752.517 209.795 776.604 186.322Z"/><path fill="#155B62" d="M812.858 221.076L814.268 222.528C819.921 228.392 825.378 234.442 830.629 240.667C821.65 248.521 812.514 257.941 804.09 266.45L761.113 310.262C756.084 304.56 750.863 298.427 745.499 293.1C745.022 291.196 744.846 291.366 743.238 290.741C754.21 281.781 764.236 269.724 774.374 259.832C787.24 247.28 799.398 232.835 812.858 221.076Z"/><path fill="#8D8C5F" d="M812.858 221.076L814.268 222.528C811.288 226.099 807.973 229.46 804.673 232.738C786.608 250.683 769.769 269.879 751.112 287.211C749.4 288.802 746.891 291.231 745.499 293.1C745.022 291.196 744.846 291.366 743.238 290.741C754.21 281.781 764.236 269.724 774.374 259.832C787.24 247.28 799.398 232.835 812.858 221.076Z"/><path fill="#155B62" d="M639.089 110.342C646.689 113.002 654.475 115.97 662.024 118.547C659.95 120.783 657.243 123.08 655.007 125.268C630.861 148.904 607.381 173.4 583.144 196.929C574.636 194.299 565.746 192.451 557.03 190.667C565.023 181.383 581.084 167.208 590.495 157.836L622.072 126.375C626.354 122.147 634.678 113.517 639.089 110.342Z"/><path fill="#155B62" d="M664.668 119.684C672.499 122.875 680.237 126.29 687.871 129.927C680.898 135.96 674.844 142.747 668.17 149.036C648.798 167.291 630.509 187.275 610.928 205.248C605.509 202.904 592.81 199.438 586.645 197.606L664.668 119.684Z"/><path fill="#155B62" d="M713.043 142.541C720.126 146.364 727.078 150.427 733.885 154.722C729.718 159.65 724.786 164.43 720.243 169.04C700.629 188.942 681.274 209.484 660.942 228.642C653.561 223.882 646.403 221.136 639.945 217.172C654.692 201.553 670.696 186.3 685.834 171.01C695.311 161.437 704.646 153.292 713.043 142.541Z"/><path fill="#155B62" d="M736.253 156.431C741.38 159.811 750.787 165.783 755.361 169.745C734.956 192.234 711.737 212.572 690.705 234.522C688.327 237.005 685.739 239.61 683.252 241.962C678.403 238.271 669.137 232.982 663.758 230.037C671.544 222.876 680.242 213.477 687.839 205.855C704.221 189.622 720.361 173.145 736.253 156.431Z"/><path fill="#155B62" d="M831.957 242.383C836.893 248.516 841.731 254.727 846.471 261.013C823.116 282.848 800.642 307.282 777.185 329.633C773.103 324.107 767.714 318.148 763.156 313.004C771.087 303.565 781.623 293.608 790.404 284.714L831.957 242.383Z"/><path fill="#155B62" d="M913.339 629.073C910.738 637.711 908.091 646.135 904.752 654.526C901.066 666.942 879.941 714.789 872.442 724.451L871.683 725.797C866.297 720.142 861.527 715.412 855.855 709.965L877.384 661.821C881.667 652.091 887.239 638.376 892.435 629.386C899.404 629.373 906.373 629.268 913.339 629.073Z"/><path fill="#8D8C5F" d="M872.442 724.451C872.482 723.681 872.528 722.436 872.855 721.708C882.527 700.215 891.85 678.501 902.14 657.3C902.911 655.712 903.246 655.241 904.752 654.526C901.066 666.942 879.941 714.789 872.442 724.451Z"/><path fill="#155B62" d="M834.157 460.775C841.676 461.033 849.567 461.04 857.095 460.904C880.138 460.488 903.406 461.45 926.417 460.929C927.257 468.339 927.673 474.882 928.348 482.159C924.511 482.809 903.1 482.922 898.787 482.948L836.8 482.975C836.238 478.852 833.95 463.99 834.157 460.775Z"/><path fill="#155B62" d="M838.209 508.643C855.573 508.835 872.938 508.922 890.303 508.902C902.931 508.925 916.837 509.202 929.366 508.354C929.387 514.323 929.512 525.72 928.855 531.448C928.067 530.418 926.413 530.491 925.215 530.514C916.568 530.681 907.935 530.936 899.285 530.99L837.618 531.073C838.1 523.973 838.079 515.833 838.209 508.643Z"/><path fill="#155B62" d="M928.855 531.448C928.343 539.262 928.006 547.092 927.348 554.892C926.325 554.387 844.093 554.416 837.969 554.932L835.636 554.685C834.562 552.886 837.346 537.648 837.587 533.723L837.628 533.017L893.768 533.091C903.983 533.137 914.553 533.372 924.768 532.979C926.517 532.912 927.427 532.369 928.855 531.448Z"/><path fill="#155B62" d="M837.46 485.488C866.461 485.109 900.089 486.322 928.553 484.74C928.74 492.083 929.025 499.422 929.409 506.757L928.731 505.889L838.204 506.612C837.906 499.573 837.659 492.531 837.46 485.488Z"/><path fill="#8D8C5F" d="M170.536 760.107C194.707 736.531 218.15 711.952 242.15 688.184C244.953 685.407 247.668 682.45 250.563 679.777C259.481 695.468 269.72 713.219 281.337 727.351C319.008 773.176 375.248 811.41 432.368 827.851C442.316 830.714 454.743 832.818 464.859 834.24C462.232 838.172 455.846 843.95 452.263 847.395L433.882 865.128C418.814 879.889 400.903 898.972 385.428 912.693L382.999 911.9C376.526 910.117 365.129 906.058 358.854 903.705L356.224 902.827C348.925 899.878 341.67 896.822 334.46 893.661L331.546 892.313C324.491 889.033 317.538 885.537 310.698 881.829L308.338 880.743C302.31 876.837 294.126 872.403 287.641 868.393L285.185 866.926C278.038 862.498 272.127 858.418 265.262 853.532L262.439 851.499C256.604 847.618 249.668 842.258 244.098 837.947L242.079 836.385C236.006 831.654 230.384 826.593 224.667 821.446L222.475 819.294C216.817 813.974 211.289 808.517 205.896 802.928L203.945 800.88C199.762 797.177 191.72 787.834 187.678 783.343L186.017 781.198C181.408 775.392 176.591 768.609 172.127 762.608L170.536 760.107Z"/><path fill="#155B62" d="M172.127 762.608C189.97 744.973 207.708 727.233 225.339 709.387C232.966 701.733 241.668 692.52 249.433 685.257C253.592 692.786 257.411 699.515 261.948 706.808C254.565 713.362 247.747 720.371 240.768 727.349C222.658 745.457 204.116 763.075 186.017 781.198C181.408 775.392 176.591 768.609 172.127 762.608Z"/><path fill="#155B62" d="M187.678 783.343C194.906 777.232 202.91 768.804 209.787 762.019L243.199 729.147C248.361 724.008 258.03 713.83 263.449 709.485C268.178 715.432 272.669 721.899 277.095 728.102C252.936 752.585 228.551 776.845 203.945 800.88C199.762 797.177 191.72 787.834 187.678 783.343Z"/><path fill="#155B62" d="M224.667 821.446C234.011 812.206 242.719 802.973 251.918 793.711C266.666 779.047 281.303 764.273 295.829 749.388C301.539 754.704 307.276 760.438 313.077 765.554C309.688 770.132 293.88 784.803 288.775 789.805C273.053 805.174 257.487 820.701 242.079 836.385C236.006 831.654 230.384 826.593 224.667 821.446Z"/><path fill="#155B62" d="M244.098 837.947C251.035 831.727 257.399 824.93 263.999 818.35L295.625 787.096C301.682 781.106 309.559 772.934 315.994 767.644C321.167 771.889 328.964 777.901 333.748 782.369L288.901 826.896C282.236 833.45 269.723 846.209 262.439 851.499C256.604 847.618 249.668 842.258 244.098 837.947Z"/><path fill="#155B62" d="M431.549 831.53C441.383 833.823 448.56 834.869 458.113 836.739C451.815 843.601 444.879 849.697 438.402 856.33C420.296 874.872 400.643 893.058 382.999 911.9C376.526 910.117 365.129 906.058 358.854 903.705C369.695 894.614 385.717 877.797 395.831 867.508C407.06 856.085 420.876 843.14 431.549 831.53Z"/><path fill="#155B62" d="M205.896 802.928C229.07 779.44 254.905 753.622 278.796 730.982C283.948 736.317 288.625 742.086 293.588 747.594C269.58 771.191 245.874 795.093 222.475 819.294C216.817 813.974 211.289 808.517 205.896 802.928Z"/><path fill="#155B62" d="M357.416 798.159C364.238 802.367 371.158 806.413 378.171 810.293L336.466 852.494C328.027 860.865 316.072 872.134 308.338 880.743C302.31 876.837 294.126 872.403 287.641 868.393C310.934 846.13 334.416 821.05 357.416 798.159Z"/><path fill="#155B62" d="M404.994 822.513C412.771 825.125 420.532 827.781 428.278 830.481C424.358 835.849 407.205 852.083 401.634 857.623C386.836 872.341 371.478 888.758 356.224 902.827C348.925 899.878 341.67 896.822 334.46 893.661C349.332 878.79 364.089 863.805 378.729 848.706C385.404 841.78 398.016 827.672 404.994 822.513Z"/><path fill="#155B62" d="M265.262 853.532C288.569 832.983 313.476 805.782 336.369 783.984C341.865 788.091 348.634 792.92 354.531 796.455C338.457 814.108 320.048 831.036 303.458 848.313C298.235 853.752 289.858 861.437 285.185 866.926C278.038 862.498 272.127 858.418 265.262 853.532Z"/><path fill="#155B62" d="M381.49 811.477C387.936 814.724 394.467 817.799 401.077 820.697C382.965 842.341 360.476 862.166 341.079 882.779C338.107 885.938 334.762 889.428 331.546 892.313C324.491 889.033 317.538 885.537 310.698 881.829C317.763 875.565 323.179 868.921 329.764 862.497C341.132 851.408 352.43 840.466 363.635 829.206C369.061 823.754 375.912 816.202 381.49 811.477Z"/><path fill="#D3A13C" d="M610.97 300.018C606.422 295.284 605.514 289.417 610.683 284.691C613.155 282.387 616.494 281.248 619.859 281.562C626.691 282.193 629.601 287.964 629.201 294.269C628.937 298.433 624.839 301.541 621.752 303.701L621.561 304.861C621.938 308.207 621.97 309.934 621.93 313.3C625.495 314.64 628.296 316.424 629.885 320.063C630.965 322.552 630.977 325.377 629.917 327.875C628.759 330.643 626.534 332.828 623.745 333.935C620.063 335.403 617.363 334.871 613.772 333.508C606.08 341.993 591.984 354.519 583.265 362.949C550.965 362.724 518.664 362.682 486.364 362.822C473.827 375.092 459.04 390.565 446.303 401.96L379.296 401.835C369.533 401.849 358.696 401.614 349.006 401.9L348.955 416.571C383.833 416.215 418.906 416.903 453.715 416.561C466.984 403.983 482.614 389.497 495.287 376.507L605.199 376.467C608.334 372.677 621.278 359.309 625.261 356.58C622.959 354.86 621.891 352.224 621.985 349.73C622.845 327.061 655.639 340.717 639.772 357.485C637.162 360.243 630.655 359.891 627.001 358.409C621.795 364.353 614.391 370.632 608.749 376.489C623.095 387.256 638.4 404.787 652.223 415.967L672.394 415.748C677.946 399.745 698.252 410.289 692.656 423.367C691.419 426.227 689.096 428.478 686.2 429.628C677.925 432.876 671.948 426.379 671.845 418.32C665.134 418.38 657.713 418.603 651.057 418.451C636.182 406.089 622.398 391.781 607.141 379.15C572.199 380.441 532.203 379.318 496.78 379.41L455.237 419.456L383.956 419.459C373.653 419.467 358.867 419.976 349.058 419.448L349.032 433.391L425.074 433.531C437.508 433.546 453.209 434.063 465.368 433.493C478.693 420.133 492.534 406.927 505.604 393.353C510.125 392.771 518.898 393.065 523.666 393.161C527.973 396.896 535.897 403.628 539.461 407.805C552.351 394.694 565.729 417.463 554.415 425.024C545.381 431.061 530.584 422.046 537.878 409.403C532.139 405.079 528.094 400.4 522.74 396.101C517.609 395.99 512.477 395.948 507.345 395.976C494.135 408.097 479.485 423.919 466.37 436.799C427.484 435.875 387.939 436.967 349.025 436.468L349.015 451.085C384.126 451.25 420.103 450.892 455.095 451.457C458.366 454.237 461.211 457.513 464.237 460.554C479.155 475.541 493.691 491.15 508.739 505.976C526.218 505.998 545 505.665 562.37 506.121L618.984 446.695C613.89 443.135 612.847 435.492 616.434 430.568C618.208 428.18 620.89 426.631 623.845 426.29C626.817 425.922 629.804 426.839 632.058 428.812C639.987 435.761 635.517 449.577 621.453 448.342C617.025 453.68 610.888 459.765 605.895 464.65C591.47 478.764 577.968 494.982 563.464 508.868L507.002 508.825L454.216 454.462L383.346 454.223C372.406 454.202 359.803 454.483 348.997 454.098C348.966 456.618 348.553 467.329 349.456 468.837C376.043 468.331 402.922 469.234 429.539 468.867C435.018 468.792 440.393 468.932 445.883 468.669C448.674 470.777 451.527 473.89 453.943 476.459C468.855 492.317 484.843 507.39 499.469 523.493C524.743 523.039 551.418 523.504 576.783 523.521C584.115 514.72 597.235 501.558 605.4 493.463C606.205 488.433 607.355 484.477 612.6 482.259C615.45 481.073 618.669 481.141 621.467 482.447C625.393 484.237 627.478 487.386 628.847 491.325C638.502 482.694 648.007 473.897 657.358 464.938L657.001 464.136L656.489 463.8C646.231 456.934 648.451 445.363 661.068 442.178C665.73 443.582 668.27 444.398 670.936 448.934C674.214 454.511 671.322 461.485 665.645 464.05C663.556 464.994 661.509 465.344 659.618 466.641C650.31 475.161 639.023 486.171 629.559 494.05C628.674 498.326 628.048 501.385 624.055 504.087C621.528 505.76 618.432 506.341 615.471 505.695C610.902 504.736 608.696 502.093 606.58 498.235L605.745 496.713C597.825 505.568 588.162 514.918 579.818 523.621C596.326 523.6 613.209 523.771 629.678 523.58C644.91 510.107 659.977 495.762 675.154 482.485L677.039 484.231C663.324 496.906 644.94 514.866 630.751 526.482L540.873 526.459L514.965 526.317C509.576 526.279 501.992 526.018 496.793 526.722C490.982 527.509 483.519 530.324 477.709 531.903C465.044 519.421 449.951 504.573 437.884 491.625L435.042 488.99L356.486 489.082C358.83 497.059 357.453 505.339 347.676 506.258C344.495 506.569 341.321 505.589 338.87 503.536C330.649 496.617 337.34 484.495 347.613 484.189C346.539 470.315 347.055 450.628 347.075 436.523L338.51 436.523C335.054 441.815 329.619 446.634 323.051 442.973C320.124 441.309 317.993 438.533 317.142 435.275C313.466 420.833 336.21 412.871 338.871 433.381L347.122 433.413L347.091 418.628C347.198 414.275 346.187 401.412 347.824 398.437L349.323 398.914C361.734 399.338 376.519 398.917 389.121 398.917C407.875 399.053 426.631 399.031 445.385 398.851L485.272 359.997C496.886 359.336 511.053 359.744 522.811 359.794L581.721 359.995C591.883 350.831 601.897 341.505 611.759 332.019C609.405 328.878 609.148 327.574 608.247 323.888C612.482 308.589 620.543 320.083 619.685 306.577C619.632 305.357 619.587 305.043 619.343 303.845C617.924 302.78 615.81 302.799 613.461 301.905L612.963 301.711C599.545 315.61 583.443 330.542 569.446 344.193C560.212 343.895 549.437 344.156 540.102 344.135L479.963 343.986C474.506 348.401 467.305 356.049 462.148 361.185C454.116 369.109 446.042 376.99 437.925 384.828L369.775 384.524C365.706 387.577 361.694 391.152 356.136 387.965C351.692 385.418 350.48 381.981 349.334 377.281C353.122 358.753 374.625 364.485 371.009 382.009C392.61 381.506 414.887 382.189 436.665 381.889C450.16 370.107 465.242 353.904 478.648 341.177C487.691 340.782 499.216 341.214 508.457 341.229L568.204 341.282C570.344 339.476 572.328 337.472 574.344 335.53C586.589 323.728 598.346 311.424 610.97 300.018ZM348.929 483.796C350.438 484.52 352.896 485.751 354.573 485.809C381.738 486.748 409.075 485.627 436.25 486.157C438.933 488.174 440.131 489.458 442.468 491.859C454.583 503.334 466.746 516.81 479.043 528.703C484.519 526.678 490.389 525.193 496.045 523.742C479.456 508.409 460.887 487.792 444.561 471.495C421.206 471.803 397.739 471.38 374.371 471.614C367.264 471.685 357.922 472.041 351.013 471.295L349.434 471.718C348.356 474.734 349.264 480.278 348.929 483.796Z"/><path fill="#F2D9A1" d="M615.563 487.326C618.961 486.385 622.478 488.383 623.41 491.784C624.342 495.185 622.335 498.697 618.932 499.62C615.541 500.539 612.046 498.541 611.117 495.153C610.188 491.765 612.177 488.264 615.563 487.326Z"/><path fill="#F2D9A1" d="M358.613 371.734C361.684 370.578 365.108 372.143 366.244 375.221C367.379 378.299 365.792 381.713 362.707 382.829C359.65 383.934 356.274 382.364 355.148 379.315C354.023 376.265 355.571 372.878 358.613 371.734Z"/><path fill="#F2D9A1" d="M344.707 489.707C347.764 488.694 351.068 490.314 352.14 493.35C353.212 496.387 351.656 499.722 348.641 500.852C346.638 501.603 344.386 501.213 342.752 499.833C341.118 498.452 340.358 496.297 340.763 494.197C341.169 492.097 342.677 490.38 344.707 489.707Z"/><path fill="#F2D9A1" d="M545.325 410.185C547.317 409.357 549.602 409.684 551.283 411.037C552.964 412.389 553.771 414.552 553.39 416.675C553.008 418.798 551.497 420.543 549.45 421.225C546.439 422.228 543.173 420.668 542.062 417.694C540.951 414.721 542.394 411.402 545.325 410.185Z"/><path fill="#F2D9A1" d="M326.764 426.867C329.863 426.363 332.812 428.38 333.465 431.451C334.118 434.521 332.246 437.564 329.21 438.365C327.112 438.919 324.879 438.273 323.4 436.684C321.922 435.095 321.438 432.821 322.142 430.768C322.845 428.715 324.622 427.215 326.764 426.867Z"/><path fill="#F2D9A1" d="M630.307 343.822C632.25 342.908 634.538 343.137 636.262 344.417C637.986 345.697 638.867 347.821 638.554 349.946C638.241 352.07 636.785 353.851 634.765 354.579C631.837 355.636 628.595 354.204 627.403 351.328C626.211 348.452 627.489 345.147 630.307 343.822Z"/><path fill="#F2D9A1" d="M617.949 318.745C621.009 317.867 624.204 319.622 625.104 322.676C626.003 325.729 624.269 328.937 621.222 329.857C618.145 330.785 614.9 329.031 613.992 325.948C613.084 322.865 614.86 319.632 617.949 318.745Z"/><path fill="#F2D9A1" d="M681.325 413.76C684.375 413.028 687.451 414.871 688.243 417.906C689.035 420.942 687.252 424.053 684.232 424.904C682.226 425.469 680.071 424.906 678.598 423.432C677.124 421.958 676.562 419.803 677.127 417.797C677.693 415.791 679.298 414.247 681.325 413.76Z"/><path fill="#F2D9A1" d="M659.011 448.781C661.947 447.651 665.245 449.098 666.402 452.023C667.558 454.949 666.142 458.26 663.227 459.443C660.274 460.642 656.911 459.203 655.739 456.239C654.568 453.276 656.037 449.926 659.011 448.781Z"/><path fill="#F2D9A1" d="M616.716 287.345C619.601 286.389 622.727 287.878 623.803 290.72C624.88 293.562 623.524 296.748 620.729 297.942C618.814 298.761 616.605 298.464 614.974 297.169C613.343 295.874 612.553 293.788 612.917 291.738C613.281 289.687 614.739 288.001 616.716 287.345Z"/><path fill="#F2D9A1" d="M623.244 432.29C626.125 431.184 629.357 432.62 630.467 435.499C631.576 438.379 630.143 441.613 627.265 442.725C624.382 443.839 621.143 442.404 620.032 439.52C618.921 436.636 620.359 433.398 623.244 432.29Z"/><path fill="#D3A13C" d="M490.779 301.408C486.27 297.712 482.534 291.67 485.757 286.23C493.782 272.686 512.514 282.516 505.722 296.89C504.075 300.375 497.754 301.694 494.207 302.46C492.826 305.515 493.463 319.703 493.525 324.009C514.431 323.958 535.563 323.746 556.452 323.938C562.59 319.34 570.02 309.676 576 304.176C570.688 300.435 569.142 293.905 573.296 288.623C575.205 286.146 578.038 284.55 581.145 284.2C597.1 282.429 597.928 310.219 578.775 305.882L578 305.714L577.536 305.607C574.852 309.784 561.091 323.983 556.943 327.02L469.673 326.954C465.834 330.081 461.059 335.306 457.489 338.82C448.12 348.04 438.801 358.402 428.885 366.992C424.64 366.943 419.753 366.794 415.534 367.144C412.872 367.097 402.933 369.686 400.708 368.904C379.377 361.407 399.206 334.507 413.102 351.39C415.802 354.671 414.628 360.353 413.427 364.525L427.721 364.413L454.187 338.133C458.382 333.951 464.284 327.663 468.7 324.113C476.148 323.932 483.599 323.944 491.046 324.149L490.779 301.408Z"/><path fill="#F2D9A1" d="M401.868 351.7C404.001 351.158 406.26 351.802 407.785 353.389C409.31 354.975 409.866 357.258 409.24 359.367C408.615 361.477 406.905 363.088 404.762 363.586C401.495 364.347 398.225 362.334 397.432 359.075C396.638 355.816 398.617 352.526 401.868 351.7Z"/><path fill="#F2D9A1" d="M493.44 285.784C496.432 284.47 499.923 285.817 501.257 288.8C502.59 291.783 501.266 295.283 498.291 296.636C495.289 298 491.751 296.661 490.405 293.651C489.06 290.641 490.421 287.111 493.44 285.784Z"/><path fill="#F2D9A1" d="M580.369 290.294C583.386 289.315 586.622 290.984 587.575 294.009C588.527 297.035 586.83 300.256 583.796 301.182C580.8 302.096 577.627 300.425 576.686 297.437C575.746 294.449 577.389 291.261 580.369 290.294Z"/><path fill="#D3A13C" d="M583.473 437.139C589.479 437.857 594.075 440.639 594.937 447.096C595.416 450.497 594.442 453.943 592.254 456.591C587.403 462.37 580.672 460.836 575.582 456.331C572.564 459.21 569.188 462.149 566.075 464.961C569.366 471.636 568.246 477.053 562.062 481.246C555.758 482.88 549.37 481.323 547.626 474.286C546.885 471.314 547.368 468.168 548.966 465.555C551.397 461.667 553.934 461.232 557.983 460.394C560.804 461.142 561.724 461.314 564.307 462.77L573.563 453.706C571.864 444.741 573.997 438.717 583.473 437.139Z"/><path fill="#F2D9A1" d="M582.012 442.83C585.184 441.832 588.566 443.584 589.582 446.75C590.598 449.916 588.867 453.309 585.706 454.343C582.52 455.387 579.093 453.637 578.068 450.445C577.044 447.252 578.813 443.836 582.012 442.83Z"/><path fill="#F2D9A1" d="M556.844 465.773C559.869 465.34 562.688 467.396 563.2 470.409C563.711 473.421 561.73 476.293 558.732 476.883C556.721 477.279 554.654 476.553 553.333 474.987C552.012 473.42 551.645 471.26 552.375 469.345C553.105 467.431 554.816 466.063 556.844 465.773Z"/><path fill="#D3A13C" d="M517.474 424.17C523.815 423.556 529.457 428.191 530.087 434.531C530.717 440.871 526.097 446.525 519.759 447.171C515.386 447.617 511.138 445.543 508.8 441.821C506.462 438.098 506.438 433.372 508.738 429.626C510.634 426.538 513.868 424.519 517.474 424.17Z"/><path fill="#F2D9A1" d="M516.289 430.279C518.285 429.425 520.586 429.721 522.302 431.05C524.017 432.38 524.877 434.535 524.548 436.681C524.22 438.826 522.754 440.625 520.719 441.38C517.677 442.508 514.29 441.004 513.088 437.991C511.885 434.977 513.306 431.555 516.289 430.279Z"/><path fill="#D3A13C" d="M425.126 323.938C431.416 323.428 436.945 328.075 437.523 334.359C438.102 340.643 433.516 346.222 427.238 346.869C423.117 347.295 419.084 345.472 416.679 342.097C414.275 338.723 413.869 334.316 415.616 330.559C417.364 326.802 420.996 324.273 425.126 323.938Z"/><path fill="#F2D9A1" d="M424.236 329.869C426.256 329.201 428.479 329.674 430.051 331.107C431.624 332.54 432.301 334.71 431.823 336.783C431.345 338.856 429.786 340.51 427.744 341.11C424.661 342.015 421.421 340.282 420.464 337.214C419.506 334.147 421.185 330.878 424.236 329.869Z"/><path fill="#D3A13C" d="M448.44 297.236C452.583 296.938 456.565 298.895 458.861 302.356C461.157 305.818 461.411 310.247 459.525 313.948C457.639 317.649 453.905 320.047 449.755 320.224C443.468 320.491 438.131 315.661 437.771 309.378C437.412 303.096 442.163 297.688 448.44 297.236Z"/><path fill="#F2D9A1" d="M447.462 303.233C450.496 302.15 453.838 303.701 454.969 306.717C456.1 309.733 454.603 313.099 451.605 314.278C449.623 315.057 447.375 314.708 445.723 313.364C444.071 312.019 443.272 309.889 443.632 307.79C443.993 305.691 445.457 303.949 447.462 303.233Z"/><path fill="#D3A13C" d="M588.391 398.274C594.69 397.96 600.065 402.782 600.436 409.078C600.806 415.374 596.034 420.793 589.741 421.22C583.368 421.653 577.865 416.805 577.489 410.428C577.114 404.051 582.011 398.592 588.391 398.274Z"/><path fill="#F2D9A1" d="M587.836 403.805C591.082 403.122 594.264 405.208 594.933 408.457C595.601 411.706 593.501 414.879 590.249 415.533C587.018 416.182 583.869 414.098 583.205 410.87C582.541 407.642 584.611 404.484 587.836 403.805Z"/><path fill="#D3A13C" d="M534.643 289.929C540.716 288.066 547.144 291.505 548.965 297.591C550.786 303.677 547.302 310.082 541.204 311.86C535.165 313.621 528.836 310.179 527.033 304.152C525.231 298.126 528.629 291.774 534.643 289.929Z"/><path fill="#F2D9A1" d="M536.516 295.262C539.556 294.509 542.648 296.293 543.518 299.302C544.387 302.311 542.724 305.469 539.752 306.454C537.723 307.127 535.49 306.636 533.931 305.175C532.372 303.714 531.737 301.517 532.276 299.45C532.815 297.382 534.442 295.775 536.516 295.262Z"/><path fill="#D3A13C" d="M488.401 437.896C492.397 436.835 496.655 438.021 499.527 440.995C502.399 443.97 503.435 448.267 502.234 452.223C501.033 456.18 497.783 459.176 493.742 460.052C487.69 461.364 481.698 457.603 480.247 451.584C478.796 445.564 482.416 439.486 488.401 437.896Z"/><path fill="#F2D9A1" d="M490.477 443.244C493.626 442.725 496.617 444.804 497.228 447.936C497.84 451.068 495.852 454.12 492.739 454.824C490.641 455.3 488.451 454.596 487.023 452.988C485.594 451.381 485.153 449.123 485.872 447.096C486.59 445.069 488.355 443.593 490.477 443.244Z"/><path fill="#D3A13C" d="M357.783 502.94C360.702 503.268 364.297 506.285 367.943 507.641C371.476 504.749 376.46 501.383 381.193 503.215C388.441 506.02 390.467 512.133 387.841 519.159C386.487 521.164 385.345 522.531 383.16 523.674C380.433 525.104 377.242 525.362 374.321 524.388C371.453 523.421 369.101 521.332 367.803 518.599C366.222 515.256 366.364 512.277 367.651 508.925C364.173 507.189 360.659 505.541 357.783 502.94Z"/><path fill="#F2D9A1" d="M376.18 508.297C379.237 507.392 382.457 509.097 383.426 512.133C384.396 515.17 382.76 518.425 379.744 519.459C377.736 520.148 375.512 519.696 373.931 518.278C372.351 516.861 371.661 514.699 372.127 512.628C372.594 510.556 374.145 508.9 376.18 508.297Z"/><path fill="#D3A13C" d="M648.112 366.871C651.984 365.901 656.079 367.089 658.832 369.98C661.585 372.871 662.571 377.019 661.413 380.84C660.255 384.66 657.133 387.563 653.238 388.44C647.315 389.773 641.422 386.095 640.018 380.188C638.614 374.282 642.222 368.345 648.112 366.871Z"/><path fill="#F2D9A1" d="M650.029 371.912C653.218 371.479 656.162 373.693 656.63 376.878C657.098 380.062 654.915 383.03 651.736 383.532C649.649 383.862 647.545 383.045 646.227 381.393C644.91 379.74 644.581 377.508 645.368 375.546C646.155 373.584 647.934 372.196 650.029 371.912Z"/><path fill="#D3A13C" d="M519.857 471.888C523.055 471.591 526.225 472.703 528.537 474.933C530.85 477.162 532.076 480.289 531.897 483.497C531.598 488.826 527.529 493.179 522.231 493.834C518.277 494.324 514.366 492.644 511.998 489.44C509.63 486.236 509.172 482.005 510.8 478.368C512.428 474.732 515.89 472.255 519.857 471.888Z"/><path fill="#F2D9A1" d="M519.382 477.267C521.412 476.722 523.578 477.311 525.051 478.809C526.524 480.308 527.077 482.483 526.498 484.503C525.919 486.523 524.298 488.075 522.254 488.566C519.153 489.31 516.03 487.424 515.244 484.333C514.459 481.242 516.302 478.094 519.382 477.267Z"/><path fill="#D3A13C" d="M687.739 470.478C682.481 466.51 679.518 460.514 684.192 454.805C686.116 452.464 688.899 450.993 691.917 450.722C706.655 449.422 709.609 472.213 691.926 472.058C691.218 472.051 690.511 472.031 689.805 471.998L687.739 470.478Z"/><path fill="#F2D9A1" d="M690.911 456.325C692.829 455.478 695.054 455.742 696.722 457.012C698.389 458.282 699.233 460.358 698.926 462.432C698.619 464.505 697.208 466.247 695.245 466.979C692.329 468.067 689.077 466.639 687.905 463.756C686.733 460.874 688.064 457.581 690.911 456.325Z"/><path fill="#D3A13C" d="M392.621 502.582C401.935 502.632 411.664 502.822 420.942 502.554C429.317 509.423 437.089 519.365 445.074 526.853C447.424 529.057 456.835 537.745 456.452 540.098C454.476 540.473 455.408 540.596 453.569 539.634C442.697 529.265 430.65 516.369 419.963 505.476C412.677 505.443 394.979 504.609 388.979 506.366L388.707 506.117C390.238 504.458 390.819 503.95 392.621 502.582Z"/><path fill="#D3A13C" d="M687.739 470.478L689.805 471.998C687.445 475.007 680.195 481.377 677.039 484.231L675.154 482.485C679.391 478.527 683.586 474.524 687.739 470.478Z"/><path fill="#D3A13C" fill-opacity="0.96078432" d="M347.824 398.437C349.629 395.159 351.138 392.05 353.644 389.269C352.779 391.853 350.589 396.392 349.323 398.914L347.824 398.437Z"/><path fill="#010003" fill-opacity="0.011764706" d="M451.441 550.627C453.026 550.714 452.474 550.371 453.362 551.295C452.858 552.692 452.98 552.744 451.815 553.604C450.75 553.334 451.125 553.468 450.193 552.817L451.749 551.597L451.441 550.627Z"/><path fill="#FDFDFA" d="M555.586 605.582C573.34 604.423 587.754 611.375 591.81 630.575C594.074 641.289 589.821 651.083 583.764 659.887C585.978 662.384 588.44 664.432 590.947 666.631L584.733 672.76L577.15 664.952C565.473 669.014 554.948 671.406 543.637 664.342C536.546 659.823 531.51 652.704 529.61 644.513C525.292 625.466 537.138 609.78 555.586 605.582Z"/><path fill="#155B62" d="M556.347 614.099C580.668 611.684 591.231 636.185 576.046 654.653C573.043 652.046 572.1 650.589 570.115 647.317C565.966 647.432 561.987 647.785 557.858 648.128L561.745 651.876C564.002 654.134 566.02 656.721 568.049 659.195C536.115 666.588 525.133 623.873 556.347 614.099Z"/><path fill="#FDFDFA" d="M314.663 605.752C331.921 602.364 348.671 613.564 352.133 630.807C355.596 648.05 344.468 664.848 327.239 668.385C309.906 671.943 292.983 660.732 289.499 643.384C286.016 626.035 297.299 609.161 314.663 605.752Z"/><path fill="#155B62" d="M317.107 614.239C329.576 612.242 341.324 620.672 343.426 633.124C345.527 645.577 337.196 657.395 324.761 659.6C312.179 661.831 300.19 653.379 298.064 640.779C295.937 628.179 304.489 616.261 317.107 614.239Z"/><path fill="#FDFDFA" d="M418.424 605.868C435.607 603.228 451.689 614.982 454.391 632.156C457.093 649.329 445.396 665.453 428.232 668.216C410.981 670.993 394.757 659.225 392.042 641.964C389.327 624.703 401.154 608.522 418.424 605.868Z"/><path fill="#155B62" d="M419.277 614.809C427.294 613.383 435.459 616.373 440.659 622.639C445.859 628.905 447.292 637.482 444.413 645.098C441.533 652.715 434.784 658.198 426.739 659.457C414.479 661.375 402.961 653.064 400.915 640.825C398.87 628.586 407.06 616.982 419.277 614.809Z"/><path fill="#FDFDFA" d="M662.884 606.281C665.783 608.34 692.864 659.936 697.193 667.621L686.738 667.937C683.829 662.397 680.852 656.894 677.807 651.427L666.125 651.525L648.984 651.494C646.354 656.981 643.237 662.597 640.361 667.988L629.984 667.962C640.1 648.573 651.922 625.161 662.884 606.281Z"/><path fill="#155B62" d="M662.464 624.272C664.719 625.439 671.414 639.342 673.233 642.512L665.285 642.621C661.467 642.692 657.648 642.709 653.83 642.67C657.155 636.162 659.651 630.99 662.464 624.272Z"/><path fill="#FDFDFA" d="M462.169 605.291C464.274 606.434 488.562 638.747 492.544 643.588C492.844 631.06 492.911 618.527 492.747 605.996L501.548 605.988C501.451 626.036 501.874 647.115 501.379 667.009C491.959 656.379 480.025 640.517 471.151 629.08L471.182 667.949L462.51 667.998C462.572 647.162 462.028 625.992 462.169 605.291Z"/><path fill="#FDFDFA" d="M354.833 606.011C366.776 605.86 378.719 605.819 390.663 605.887C390.79 608.807 390.715 611.752 390.683 614.677C386.579 614.988 381.126 614.892 376.919 614.937L376.705 654.625L376.698 668.503L368.009 668.539C367.627 650.693 367.514 632.843 367.669 614.994L354.928 614.961L354.833 606.011Z"/><path fill="#FDFDFA" d="M511.348 606.05L520.588 605.952C521.2 624.066 521.604 650.066 520.572 668.115C517.809 668.112 514.807 668.293 512.026 668.405C510.981 651.408 510.64 622.866 511.348 606.05Z"/><path fill="#FDFDFA" d="M713.04 605.977L722.57 605.842L722.491 667.971L713.502 668.002C713.136 647.329 712.982 626.653 713.04 605.977Z"/></svg>